<svg version="1.1" id="Capa_1" xmlns="http://www.w3.org/2000/svg" x="0" y="0" viewBox="0 0 26.5 24.1" xml:space="preserve"><style>.st2{fill:#d80027}</style><path d="M22.7 12c0 5.2-4.2 9.5-9.5 9.5-5.2 0-9.5-4.2-9.5-9.5 0-5.2 4.2-9.5 9.5-9.5 5.3.1 9.5 4.3 9.5 9.5zm0 0" fill="#f0f0f0"/><path d="M5.7 6.3c-.7.9-1.3 2-1.6 3.3H9L5.7 6.3zm16.7 3.3c-.3-1.2-.9-2.3-1.6-3.3l-3.3 3.3h4.9zM4.1 14.5c.3 1.2.9 2.3 1.6 3.3L9 14.5H4.1zM19 4.5c-1-.7-2.1-1.3-3.3-1.6v4.9L19 4.5zM7.5 19.6c1 .7 2.1 1.3 3.3 1.6v-4.9l-3.3 3.3zm3.3-16.7c-1.2.3-2.4.9-3.3 1.6l3.3 3.3V2.9zm4.9 18.3c1.2-.3 2.3-.9 3.3-1.6l-3.3-3.3v4.9zm1.8-6.7l3.3 3.3c.7-1 1.3-2.1 1.6-3.3h-4.9zm0 0" fill="#0052b4"/><path class="st2" d="M22.6 10.8h-8.2V2.6c-.4-.1-.8-.1-1.2-.1-.4 0-.8 0-1.2.1v8.2H3.8c-.1.4-.1.8-.1 1.2 0 .4 0 .8.1 1.2H12v8.2c.4.1.8.1 1.2.1.4 0 .8 0 1.2-.1v-8.2h8.2c.1-.4.1-.8.1-1.2 0-.4 0-.8-.1-1.2zm0 0"/><path class="st2" d="M15.7 14.5l4.2 4.2.6-.6-3.6-3.6h-1.2zm-4.9 0l-4.2 4.2.6.6 3.6-3.6v-1.2zm0-4.9L6.5 5.3c-.2.2-.3.4-.5.6l3.6 3.6h1.2zm4.9 0l4.2-4.2-.6-.6-3.6 3.6v1.2zm0 0"/></svg>